<!DOCTYPE svg PUBLIC "-//W3C//DTD SVG 1.1//EN" "http://www.w3.org/Graphics/SVG/1.1/DTD/svg11.dtd" [
	<!ENTITY ns_flows "http://ns.adobe.com/Flows/1.0/">
]><svg xmlns="http://www.w3.org/2000/svg" xmlns:xlink="http://www.w3.org/1999/xlink" width="595" height="842" viewBox="0 0 595 842"><defs><path id="SVGID_1_" d="M0 0h595.28v841.89H0z"/></defs><clipPath id="SVGID_4_"><use xlink:href="#SVGID_1_" overflow="visible"/></clipPath><path clip-path="url(#SVGID_4_)" fill="#FFF" d="M526.392 135.05H69.854c-34.537 0-62.517 27.996-62.517 62.532v456.542c0 34.53 27.98 62.527 62.517 62.527H526.39c34.54 0 62.552-27.995 62.552-62.526V197.582c0-34.536-28.01-62.533-62.55-62.533M192.524 369.935a118.63 118.63 0 0 1 8.254-13.54c.09-.106.143-.21.228-.316 2.204-3.085 4.532-6.084 7.014-8.94.142-.19.32-.387.48-.562a123.178 123.178 0 0 1 7.506-7.884c.267-.224.533-.49.814-.757.796-.74 1.62-1.5 2.467-2.222.283-.28.615-.564.917-.81a124.45 124.45 0 0 1 4.46-3.687c.405-.333.808-.65 1.234-.968.775-.6 1.567-1.183 2.382-1.765a46.498 46.498 0 0 1 1.62-1.143c.986-.706 1.974-1.375 2.962-2.05.935-.612 1.888-1.213 2.837-1.795.705-.46 1.428-.864 2.15-1.287.742-.42 1.482-.864 2.22-1.27.69-.405 1.376-.77 2.1-1.163 1.29-.686 2.61-1.378 3.934-2.025.58-.268 1.147-.55 1.745-.796.97-.456 1.957-.917 2.942-1.337.636-.267 1.234-.534 1.87-.814 1.23-.494 2.432-.968 3.666-1.426.512-.196 1.005-.39 1.517-.565 1.377-.49 2.75-.967 4.146-1.393.544-.192 1.127-.352 1.672-.53 1.27-.387 2.523-.743 3.76-1.076.44-.104.842-.226 1.282-.332 1.623-.425 3.282-.795 4.954-1.147.46-.086.938-.195 1.43-.284a92.503 92.503 0 0 1 4.018-.723c.463-.07.918-.138 1.38-.21a108.92 108.92 0 0 1 5.233-.67c.318-.033.635-.05.952-.09 1.515-.142 3.014-.245 4.496-.33.51-.036 1.003-.058 1.518-.092 1.777-.087 3.61-.125 5.443-.125 1.816 0 3.63.038 5.465.125.497.034.99.056 1.462.09 1.52.087 3.036.19 4.498.333.318.04.652.057.988.09 1.762.18 3.476.405 5.2.67.477.072.953.14 1.41.21 1.34.21 2.68.46 4.038.723.46.09.917.198 1.43.284 1.64.353 3.298.722 4.956 1.147.404.106.806.228 1.23.332a76.64 76.64 0 0 1 3.76 1.076c.562.178 1.144.338 1.69.53a95.598 95.598 0 0 1 5.662 1.958c1.216.458 2.446.932 3.646 1.426.636.28 1.288.547 1.906.813.985.42 1.94.88 2.962 1.318.54.264 1.144.547 1.692.815 1.34.647 2.66 1.34 3.98 2.025.69.39 1.38.758 2.066 1.163.76.407 1.517.85 2.238 1.27.723.424 1.428.83 2.167 1.288a102.52 102.52 0 0 1 2.788 1.795c1.003.674 2.024 1.344 2.98 2.05.545.367 1.11.757 1.657 1.143a210.01 210.01 0 0 1 2.328 1.765c.422.317.826.635 1.248.97 1.5 1.182 3 2.398 4.446 3.686.315.246.633.53.95.81a97.173 97.173 0 0 1 2.447 2.222c.285.266.533.533.816.757 2.606 2.523 5.13 5.15 7.51 7.884.19.174.334.372.508.56a114.235 114.235 0 0 1 6.985 8.94c.065.108.175.21.224.318 3.052 4.3 5.805 8.83 8.254 13.54 8.552 16.43 13.413 35.1 13.413 54.885 0 65.724-53.29 119-119.003 119-65.723 0-119.017-53.276-119.017-119a118.666 118.666 0 0 1 13.414-54.887m329.14 242.188c0 20.595-16.692 37.272-37.27 37.272H111.85c-20.574 0-37.27-16.678-37.27-37.272V369.97h50.9c-5.5 17.298-8.446 35.72-8.446 54.852 0 100.015 81.08 181.096 181.096 181.096 100.035 0 181.12-81.08 181.12-181.096 0-19.132-2.98-37.554-8.48-54.852h50.896v242.154zm1.044-335.59c0 16.166-13.12 29.28-29.27 29.28h-47.033c-16.152 0-29.27-13.115-29.27-29.28V229.51c0-16.148 13.118-29.263 29.27-29.263h47.032c16.15 0 29.27 13.114 29.27 29.264v47.023z"/></svg>