<?xml version="1.0" encoding="utf-8"?>
<!-- Generator: Adobe Illustrator 22.1.0, SVG Export Plug-In . SVG Version: 6.00 Build 0)  -->
<svg version="1.1" id="Layer_1" xmlns="http://www.w3.org/2000/svg" xmlns:xlink="http://www.w3.org/1999/xlink" x="0px" y="0px"
	 viewBox="0 0 177.3 72.7" style="enable-background:new 0 0 177.3 72.7;" xml:space="preserve">
<style type="text/css">
	.st0{fill:#005496;}
	.st1{fill:none;}
</style>
<g>
	<g>
		<polyline class="st0" points="147.1,34.9 103.2,34.9 103.2,32.9 146.8,32.9 		"/>
	</g>
	<g>
		<path class="st0" d="M148.9,36.4c1.3,0,2.4-1.1,2.4-2.4s-1.1-2.4-2.4-2.4c-1.3,0-2.4,1.1-2.4,2.4S147.6,36.4,148.9,36.4z"/>
	</g>
</g>
<g>
	<g>
		<polyline class="st0" points="147.1,27.5 103.2,27.5 103.2,25.5 146.8,25.5 		"/>
	</g>
	<g>
		<path class="st0" d="M148.9,28.9c1.3,0,2.4-1.1,2.4-2.4s-1.1-2.4-2.4-2.4c-1.3,0-2.4,1.1-2.4,2.4S147.6,28.9,148.9,28.9z"/>
	</g>
</g>
<g>
	<g>
		<polyline class="st0" points="147.1,20.1 103.2,20.1 103.2,18.1 146.8,18.1 		"/>
	</g>
	<g>
		<path class="st0" d="M148.9,21.6c1.3,0,2.4-1.1,2.4-2.4s-1.1-2.4-2.4-2.4c-1.3,0-2.4,1.1-2.4,2.4S147.6,21.6,148.9,21.6z"/>
	</g>
</g>
<g>
	<path class="st0" d="M146.7,40.2c0.7-0.8,1.4-1.6,2.7-1.4c1.3,0.5,2.1,2.1,1.5,3.6c-0.7,1.2-2.5,1.5-3.4,0.6l-0.5-1H23.8v-1.8
		H146.7z"/>
</g>
<path class="st0" d="M148.9,43.6c1.3,0,2.4-1.1,2.4-2.4c0-1.3-1.1-2.4-2.4-2.4c-1.3,0-2.4,1.1-2.4,2.4
	C146.5,42.5,147.6,43.6,148.9,43.6z"/>
<path class="st0" d="M23.8,19.2h9.8c4.7,0,5.7,2.6,5.7,4.5c0,1.8-0.9,2.8-2.2,3.5c1.6,0.5,3.1,1.8,3.1,4.4c0,3.6-3.1,5.4-6.2,5.4
	H23.8V19.2z M29.3,32.8h3.2c1.1,0,2.1-0.3,2.1-1.7c0-1-0.6-1.6-1.9-1.6h-3.4V32.8z M29.3,26.1h2.9c1.1,0,1.9-0.3,1.9-1.5
	c0-0.9-0.7-1.2-1.9-1.2h-2.9V26.1z"/>
<path class="st0" d="M59.6,37h-5.3l-1.9-10.9h0L50.4,37H45l-4.8-17.8h5.4l2.2,11h0l2.1-11h4.8l2.1,11.2h0l2.2-11.2h5.4L59.6,37z"/>
<path class="st0" d="M70.2,31c0,0.4,0.1,0.8,0.2,1.2c0.4,1.1,1.6,1.3,2.6,1.3c0.9,0,2.3-0.3,2.3-1.6c0-0.9-0.8-1.2-3.8-2
	c-2.8-0.8-6-1.6-6-5.2c0-4.1,3.5-5.9,7.2-5.9c3.9,0,7.3,1.5,7.4,5.8h-5.2c0.1-0.7-0.2-1.1-0.6-1.4c-0.4-0.3-1.1-0.4-1.6-0.4
	c-0.8,0-2,0.2-2,1.2c0.1,1.3,2.6,1.5,5.2,2.2c2.5,0.7,5,1.9,5,5.1c0,4.6-4.3,6.1-8.2,6.1c-2,0-7.8-0.7-7.8-6.4H70.2z"/>
<path class="st0" d="M93.8,25.8c-0.1-0.6-0.6-2.6-2.9-2.6c-2.6,0-3.4,2.5-3.4,4.9c0,2.4,0.8,4.9,3.4,4.9c1.8,0,2.6-1.3,2.9-3h5.4
	c0,3.6-2.9,7.4-8.1,7.4c-5.8,0-9-4.1-9-9.3c0-5.6,3.5-9.3,9-9.3c4.9,0,7.6,2.6,8.1,7.1H93.8z"/>
<path class="st0" d="M25.6,53.4v-2.3l-2-3.1h1.3l1.3,2.1l1.2-2.1h1.2l-2,3.1v2.3H25.6z"/>
<path class="st0" d="M29,50.7c0-0.5,0.1-1,0.2-1.4c0.1-0.3,0.3-0.5,0.5-0.7c0.2-0.2,0.4-0.4,0.7-0.5c0.3-0.1,0.7-0.2,1.2-0.2
	c0.8,0,1.4,0.2,1.9,0.7c0.5,0.5,0.7,1.2,0.7,2c0,0.9-0.2,1.5-0.7,2s-1.1,0.7-1.9,0.7c-0.8,0-1.4-0.2-1.9-0.7
	C29.3,52.3,29,51.6,29,50.7z M30.1,50.7c0,0.6,0.1,1.1,0.4,1.4c0.3,0.3,0.6,0.5,1.1,0.5c0.4,0,0.8-0.2,1.1-0.5
	c0.3-0.3,0.4-0.8,0.4-1.4c0-0.6-0.1-1.1-0.4-1.4c-0.3-0.3-0.6-0.5-1.1-0.5c-0.4,0-0.8,0.2-1.1,0.5S30.1,50.1,30.1,50.7z"/>
<path class="st0" d="M35.1,48h1.1v2.9c0,0.5,0,0.8,0,0.9c0,0.2,0.2,0.4,0.3,0.5c0.2,0.1,0.4,0.2,0.7,0.2c0.3,0,0.5-0.1,0.7-0.2
	s0.2-0.3,0.3-0.5c0-0.2,0-0.5,0-0.9v-3h1.1v2.8c0,0.6,0,1.1-0.1,1.4c-0.1,0.3-0.2,0.5-0.3,0.7c-0.2,0.2-0.4,0.3-0.6,0.4
	s-0.6,0.2-1,0.2c-0.5,0-0.9-0.1-1.2-0.2c-0.3-0.1-0.5-0.3-0.6-0.5c-0.2-0.2-0.3-0.4-0.3-0.6c-0.1-0.3-0.1-0.8-0.1-1.4V48z"/>
<path class="st0" d="M40.5,53.4V48h2.3c0.6,0,1,0,1.3,0.1c0.3,0.1,0.5,0.3,0.6,0.5c0.2,0.2,0.2,0.5,0.2,0.8c0,0.4-0.1,0.7-0.4,1
	c-0.2,0.3-0.6,0.4-1.1,0.5c0.2,0.1,0.4,0.3,0.6,0.5c0.2,0.2,0.4,0.5,0.6,0.9l0.7,1H44l-0.8-1.2c-0.3-0.4-0.5-0.7-0.6-0.8
	c-0.1-0.1-0.2-0.2-0.3-0.2s-0.3-0.1-0.5-0.1h-0.2v2.2H40.5z M41.6,50.3h0.8c0.5,0,0.8,0,1-0.1s0.2-0.1,0.3-0.2s0.1-0.2,0.1-0.4
	c0-0.2,0-0.3-0.1-0.4c-0.1-0.1-0.2-0.2-0.4-0.2c-0.1,0-0.4,0-0.8,0h-0.8V50.3z"/>
<path class="st0" d="M50.7,51.4v-0.9H53v2.1c-0.2,0.2-0.6,0.4-1,0.6c-0.4,0.2-0.9,0.3-1.3,0.3c-0.6,0-1.1-0.1-1.5-0.4
	c-0.4-0.2-0.7-0.6-0.9-1S48,51.2,48,50.7c0-0.6,0.1-1.1,0.4-1.5s0.6-0.8,1-1c0.3-0.2,0.8-0.3,1.3-0.3c0.7,0,1.2,0.1,1.6,0.4
	c0.4,0.3,0.6,0.7,0.7,1.2l-1.1,0.2c-0.1-0.3-0.2-0.5-0.4-0.6c-0.2-0.2-0.5-0.2-0.8-0.2c-0.5,0-0.9,0.1-1.1,0.5
	c-0.3,0.3-0.4,0.7-0.4,1.3c0,0.6,0.1,1.1,0.4,1.4c0.3,0.3,0.7,0.5,1.1,0.5c0.2,0,0.5,0,0.7-0.1c0.2-0.1,0.4-0.2,0.6-0.3v-0.7H50.7z"
	/>
<path class="st0" d="M54.1,53.4v-5.3h1.1v4.4h2.7v0.9H54.1z"/>
<path class="st0" d="M58.4,50.7c0-0.5,0.1-1,0.2-1.4c0.1-0.3,0.3-0.5,0.5-0.7c0.2-0.2,0.4-0.4,0.7-0.5c0.3-0.1,0.7-0.2,1.2-0.2
	c0.8,0,1.4,0.2,1.9,0.7c0.5,0.5,0.7,1.2,0.7,2c0,0.9-0.2,1.5-0.7,2s-1.1,0.7-1.9,0.7c-0.8,0-1.4-0.2-1.9-0.7
	C58.6,52.3,58.4,51.6,58.4,50.7z M59.5,50.7c0,0.6,0.1,1.1,0.4,1.4c0.3,0.3,0.6,0.5,1.1,0.5c0.4,0,0.8-0.2,1.1-0.5
	c0.3-0.3,0.4-0.8,0.4-1.4c0-0.6-0.1-1.1-0.4-1.4c-0.3-0.3-0.6-0.5-1.1-0.5c-0.4,0-0.8,0.2-1.1,0.5S59.5,50.1,59.5,50.7z"/>
<path class="st0" d="M64.5,48h2.1c0.4,0,0.7,0,1,0.1c0.2,0,0.4,0.1,0.6,0.2c0.2,0.1,0.3,0.3,0.4,0.4c0.1,0.2,0.2,0.4,0.2,0.6
	c0,0.3-0.1,0.5-0.2,0.7c-0.1,0.2-0.3,0.4-0.6,0.5c0.3,0.1,0.6,0.3,0.8,0.5s0.3,0.5,0.3,0.8c0,0.2-0.1,0.5-0.2,0.7
	c-0.1,0.2-0.3,0.4-0.5,0.6c-0.2,0.1-0.4,0.2-0.7,0.3c-0.2,0-0.6,0-1.3,0h-1.8V48z M65.5,48.9v1.2h0.7c0.4,0,0.7,0,0.8,0
	c0.2,0,0.3-0.1,0.4-0.2c0.1-0.1,0.2-0.2,0.2-0.4c0-0.2,0-0.3-0.1-0.4c-0.1-0.1-0.2-0.2-0.4-0.2c-0.1,0-0.4,0-0.9,0H65.5z M65.5,51
	v1.4h1c0.4,0,0.6,0,0.7,0c0.2,0,0.3-0.1,0.4-0.2c0.1-0.1,0.2-0.3,0.2-0.5c0-0.2,0-0.3-0.1-0.4s-0.2-0.2-0.3-0.2
	c-0.1-0.1-0.5-0.1-1-0.1H65.5z"/>
<path class="st0" d="M74.7,53.4h-1.2l-0.5-1.2h-2.1l-0.4,1.2h-1.1l2.1-5.4h1.1L74.7,53.4z M72.7,51.3l-0.7-2l-0.7,2H72.7z"/>
<path class="st0" d="M75.3,53.4v-5.3h1.1v4.4h2.7v0.9H75.3z"/>
<path class="st0" d="M82,53.4V48h4v0.9h-2.9v1.2h2.7V51h-2.7v1.5h3v0.9H82z"/>
<path class="st0" d="M87.1,53.4V48h1.1l2.2,3.6V48h1v5.4h-1.1l-2.2-3.5v3.5H87.1z"/>
<path class="st0" d="M92.5,53.4V48h4v0.9h-2.9v1.2h2.7V51h-2.7v1.5h3v0.9H92.5z"/>
<path class="st0" d="M97.5,53.4V48h2.3c0.6,0,1,0,1.2,0.1c0.3,0.1,0.5,0.3,0.6,0.5c0.2,0.2,0.2,0.5,0.2,0.8c0,0.4-0.1,0.7-0.4,1
	c-0.2,0.3-0.6,0.4-1.1,0.5c0.2,0.1,0.4,0.3,0.6,0.5c0.2,0.2,0.4,0.5,0.6,0.9l0.7,1H101l-0.8-1.2c-0.3-0.4-0.5-0.7-0.6-0.8
	c-0.1-0.1-0.2-0.2-0.3-0.2c-0.1,0-0.3-0.1-0.5-0.1h-0.2v2.2H97.5z M98.6,50.3h0.8c0.5,0,0.8,0,1-0.1c0.1,0,0.2-0.1,0.3-0.2
	c0.1-0.1,0.1-0.2,0.1-0.4c0-0.2,0-0.3-0.1-0.4s-0.2-0.2-0.4-0.2c-0.1,0-0.4,0-0.8,0h-0.8V50.3z"/>
<path class="st0" d="M105.4,51.4v-0.9h2.3v2.1c-0.2,0.2-0.6,0.4-1,0.6s-0.9,0.3-1.3,0.3c-0.6,0-1.1-0.1-1.5-0.4
	c-0.4-0.2-0.7-0.6-0.9-1s-0.3-0.9-0.3-1.4c0-0.6,0.1-1.1,0.4-1.5s0.6-0.8,1-1c0.3-0.2,0.8-0.3,1.3-0.3c0.7,0,1.2,0.1,1.6,0.4
	s0.6,0.7,0.7,1.2l-1.1,0.2c-0.1-0.3-0.2-0.5-0.4-0.6s-0.5-0.2-0.8-0.2c-0.5,0-0.9,0.1-1.1,0.5c-0.3,0.3-0.4,0.7-0.4,1.3
	c0,0.6,0.1,1.1,0.4,1.4c0.3,0.3,0.7,0.5,1.1,0.5c0.2,0,0.5,0,0.7-0.1c0.2-0.1,0.4-0.2,0.6-0.3v-0.7H105.4z"/>
<path class="st0" d="M110.1,53.4v-2.3l-2-3.1h1.3l1.3,2.1l1.2-2.1h1.2l-2,3.1v2.3H110.1z"/>
<path class="st0" d="M115.9,53.4V48h1.7c0.7,0,1.1,0,1.3,0.1c0.3,0.1,0.6,0.3,0.8,0.5c0.2,0.3,0.3,0.6,0.3,1c0,0.3-0.1,0.6-0.2,0.8
	c-0.1,0.2-0.3,0.4-0.5,0.5c-0.2,0.1-0.4,0.2-0.6,0.3c-0.3,0.1-0.6,0.1-1.1,0.1H117v2H115.9z M117,48.9v1.5h0.6c0.4,0,0.7,0,0.9-0.1
	c0.1-0.1,0.3-0.1,0.3-0.3c0.1-0.1,0.1-0.3,0.1-0.4c0-0.2-0.1-0.4-0.2-0.5c-0.1-0.1-0.3-0.2-0.4-0.2c-0.1,0-0.4,0-0.8,0H117z"/>
<path class="st0" d="M125.2,53.4H124l-0.5-1.2h-2.1l-0.4,1.2h-1.2l2.1-5.4h1.1L125.2,53.4z M123.2,51.3l-0.7-2l-0.7,2H123.2z"/>
<path class="st0" d="M125.8,53.4V48h2.3c0.6,0,1,0,1.2,0.1c0.3,0.1,0.5,0.3,0.6,0.5c0.2,0.2,0.2,0.5,0.2,0.8c0,0.4-0.1,0.7-0.4,1
	c-0.2,0.3-0.6,0.4-1.1,0.5c0.2,0.1,0.4,0.3,0.6,0.5c0.2,0.2,0.4,0.5,0.6,0.9l0.7,1h-1.3l-0.8-1.2c-0.3-0.4-0.5-0.7-0.6-0.8
	c-0.1-0.1-0.2-0.2-0.3-0.2c-0.1,0-0.3-0.1-0.5-0.1h-0.2v2.2H125.8z M126.8,50.3h0.8c0.5,0,0.8,0,1-0.1c0.1,0,0.2-0.1,0.3-0.2
	c0.1-0.1,0.1-0.2,0.1-0.4c0-0.2,0-0.3-0.1-0.4s-0.2-0.2-0.4-0.2c-0.1,0-0.4,0-0.8,0h-0.8V50.3z"/>
<path class="st0" d="M132.4,53.4v-4.5h-1.6V48h4.3v0.9h-1.6v4.5H132.4z"/>
<path class="st0" d="M135.8,53.4V48h1.1l2.2,3.6V48h1v5.4h-1.1l-2.2-3.5v3.5H135.8z"/>
<path class="st0" d="M141.2,53.4V48h4v0.9h-2.9v1.2h2.7V51h-2.7v1.5h3v0.9H141.2z"/>
<path class="st0" d="M146.2,53.4V48h2.3c0.6,0,1,0,1.2,0.1c0.3,0.1,0.5,0.3,0.6,0.5c0.2,0.2,0.2,0.5,0.2,0.8c0,0.4-0.1,0.7-0.4,1
	c-0.2,0.3-0.6,0.4-1.1,0.5c0.2,0.1,0.4,0.3,0.6,0.5c0.2,0.2,0.4,0.5,0.6,0.9l0.7,1h-1.3l-0.8-1.2c-0.3-0.4-0.5-0.7-0.6-0.8
	c-0.1-0.1-0.2-0.2-0.3-0.2c-0.1,0-0.3-0.1-0.5-0.1h-0.2v2.2H146.2z M147.3,50.3h0.8c0.5,0,0.8,0,1-0.1c0.1,0,0.2-0.1,0.3-0.2
	c0.1-0.1,0.1-0.2,0.1-0.4c0-0.2,0-0.3-0.1-0.4s-0.2-0.2-0.4-0.2c-0.1,0-0.4,0-0.8,0h-0.8V50.3z"/>
<rect x="22.3" y="15.2" class="st1" width="130.5" height="39.7"/>
</svg>
