<?xml version="1.0" encoding="utf-8"?>
<!-- Generator: Adobe Illustrator 21.1.0, SVG Export Plug-In . SVG Version: 6.00 Build 0)  -->
<svg version="1.1"
	 id="svg8" inkscape:version="0.92.1 r15371" sodipodi:docname="besucherzentrum.svg" xmlns:cc="http://creativecommons.org/ns#" xmlns:dc="http://purl.org/dc/elements/1.1/" xmlns:inkscape="http://www.inkscape.org/namespaces/inkscape" xmlns:rdf="http://www.w3.org/1999/02/22-rdf-syntax-ns#" xmlns:sodipodi="http://sodipodi.sourceforge.net/DTD/sodipodi-0.dtd" xmlns:svg="http://www.w3.org/2000/svg"
	 xmlns="http://www.w3.org/2000/svg" xmlns:xlink="http://www.w3.org/1999/xlink" x="0px" y="0px" viewBox="0 0 500 500"
	 style="enable-background:new 0 0 500 500;" xml:space="preserve">
<style type="text/css">
	.st0{fill:#FFFFFF;}
	.st1{fill:#0B7D8C;}
</style>
<sodipodi:namedview  bordercolor="#666666" borderopacity="1.0" id="base" inkscape:current-layer="layer1" inkscape:cx="42.747673" inkscape:cy="266.3113" inkscape:document-units="mm" inkscape:pageopacity="0.0" inkscape:pageshadow="2" inkscape:window-height="1147" inkscape:window-maximized="1" inkscape:window-width="1920" inkscape:window-x="-8" inkscape:window-y="-8" inkscape:zoom="0.98994949" pagecolor="#ffffff" showgrid="false" units="px">
	</sodipodi:namedview>
<g id="layer1" transform="translate(0,-164.70834)" inkscape:groupmode="layer" inkscape:label="Layer 1">
	<rect id="rect4483" x="0" y="164.7" class="st0" width="500" height="500"/>
	<path id="path4529" inkscape:connector-curvature="0" class="st1" d="M243.1,573.4c-24.6-0.7-48.9-5.7-71.6-14.7
		c-18.2-7.2-35.4-17.2-50.7-29.2c-7.2-5.7-14.3-12.2-20.7-18.9c-20.9-22-36-48.3-44.1-76.8c-3.3-11.5-5.4-23.3-6.3-35.3
		c-0.7-9.4-0.7-17.8,0.1-26.8c0.3-3.3,1.3-12.1,1.4-12.2c0,0,4.1-1.6,9-3.6c9.1-3.6,16.4-6.6,32.9-13.2c5-2,9.1-3.6,9.1-3.6
		c0,0,4.1,16.9,13.5,56.6c1.2,5.2,2.4,9.9,2.5,10.3l0.2,0.7h0.5h0.5l0.1-0.3c0-0.2,1.3-5.3,2.7-11.3c9.6-40.3,13.3-55.9,13.3-56
		c0,0,4.5,1.7,34.2,13.6c8.9,3.6,16.8,6.7,17.6,7l1.3,0.5l0,89.1l0,89.1l1.4-6.8c0.8-3.7,1.7-8.3,2.1-10.3c0.4-1.9,1.8-8.6,3.1-14.8
		c2.7-12.9,3.8-18.3,5.2-24.9c1.7-8.4,4.2-20.3,5.7-27.7c0.8-4,1.5-7.4,1.6-7.4c0-0.1,0.5-0.3,1.7-0.7c0.9-0.3,3.6-1.2,6-1.9
		c2.4-0.8,6-1.9,8-2.6c2-0.7,3.7-1.2,3.8-1.2c0.1,0,0.3,0.2,0.6,0.5l0.5,0.5v6.6v6.6h21h21v-6.6v-6.6l0.5-0.5
		c0.4-0.4,0.5-0.5,0.7-0.4c0.1,0,4.6,1.4,9.8,3.1l9.6,3.1l1.4,6.9c2,9.5,3.5,16.8,5,24.2c1.4,6.6,3.4,16.5,4.3,20.6
		c0.3,1.4,1.1,5.1,1.7,8.3c1.5,7.4,4.5,21.7,5.2,24.9c0.3,1.4,0.7,3.5,1,4.8l0.5,2.3l0-89.1l0-89.1l0.2-0.1c0.1,0,6.3-2.4,13.7-5.2
		c21.7-8.3,23.1-8.8,23.1-8.8c0,0,0.1,0.6,0.3,1.3c2.3,10.9,10.5,19.8,21.6,23.5c5.8,1.9,12.2,2.2,18.3,0.9
		c12.6-2.8,22.2-12.3,24.8-24.3c0.1-0.7,0.3-1.3,0.3-1.3c0,0,1.8,0.7,3.9,1.5c2.1,0.8,10,3.8,17.5,6.7c7.5,2.9,13.6,5.2,13.6,5.2
		c0.1,0.1,1,7.4,1.3,10.7c1.4,14.6,0.8,29.4-1.7,44.5c-7.8,46.4-33.9,88.6-73.1,117.9c-25.8,19.3-55.6,32.1-87.8,37.8
		C272.3,572.7,257.5,573.8,243.1,573.4L243.1,573.4z M246.7,432.2c-9.3-1-17.3-6.3-21.2-14.2c-2.6-5.3-3.2-11-1.7-16.7
		c2.3-8.6,9.6-15.7,18.7-17.9c2.6-0.6,4.2-0.8,7-0.8c2.2,0,3.3,0.1,5,0.4c10.3,1.9,18.4,9.3,20.8,18.9c0.5,1.9,0.6,3.3,0.6,5.5
		c0,2.6-0.2,4.4-0.9,6.6c-2.6,9.2-10.6,16.2-20.5,18C252.2,432.3,248.8,432.5,246.7,432.2L246.7,432.2z M377.4,339.7
		c-0.2,0-0.7-0.1-1.3-0.1c-3.8-0.4-7.8-1.5-11.4-3.3c-2.3-1.1-4.1-2.3-6.3-4c-1.2-0.9-3.9-3.6-4.9-4.9c-1.7-2.1-3.5-5.1-4.4-7.4
		c-1.1-2.6-1.8-5.5-2.1-8.3c-0.2-1.5-0.2-4.6,0-5.9c0.9-8.6,5.2-16.2,12.3-21.6c3.9-2.9,8.6-5.1,13.5-6.1c3.9-0.8,8.3-0.9,12.2-0.4
		c8.7,1.3,16.4,5.7,21.6,12.4c3.2,4.2,5.3,8.9,6.1,14.2c0.2,1.6,0.3,5.1,0.2,6.8c-1,10.6-7.5,20-17.5,25c-3.4,1.7-7.1,2.8-11.2,3.4
		C383.1,339.7,378.1,339.8,377.4,339.7L377.4,339.7z M117.4,327.8c-0.3,0-1.3-0.1-2-0.2c-7.8-0.8-15-4.2-20.5-9.6
		c-4.8-4.7-7.7-10.5-8.7-17.1c-0.2-1.6-0.3-5.1-0.2-6.9c1-10.8,7.8-20.3,18-25.2c10.3-4.9,22.8-4.4,32.6,1.4c3.7,2.2,7,5.1,9.5,8.5
		c7.8,10.5,8,24.4,0.5,35.1c-1.5,2.2-3.8,4.7-5.9,6.3c-5.7,4.6-12.4,7.2-19.9,7.6C119.5,327.9,118.8,327.9,117.4,327.8L117.4,327.8z
		"/>
</g>
</svg>
