<?xml version="1.0" encoding="utf-8"?>
<!-- Generator: Adobe Illustrator 21.1.0, SVG Export Plug-In . SVG Version: 6.00 Build 0)  -->
<svg version="1.1" id="Ebene_1" xmlns="http://www.w3.org/2000/svg" xmlns:xlink="http://www.w3.org/1999/xlink" x="0px" y="0px"
	 viewBox="0 0 150 82.3" style="enable-background:new 0 0 150 82.3;" xml:space="preserve">
<style type="text/css">
	.st0{fill:#717070;}
</style>
<g>
	<path class="st0" d="M86.9,67.2L44.5,24.8c-4.7,2.3-8.3,4.8-10.8,6.9L28,26l-15-15l8,29.9l-8,29.9l15-15l6.5-6.5
		c6.6,5.2,19.9,12.9,41,13.1v16L86.9,67.2z"/>
	<polygon class="st0" points="75,32.4 44.8,2.1 36.1,10.8 66.4,41 75,49.6 105.2,79.9 113.9,71.2 83.6,41 	"/>
	<path class="st0" d="M93.6,20.3L75.5,2.2v16c-3,0-5.9,0.2-8.6,0.5l38.4,38.4c17-6.6,26.6-16.7,26.6-16.7S116.5,25.8,93.6,20.3z
		 M115.4,44.6c-2.3,0-4.3-1.9-4.3-4.3c0-2.3,1.9-4.3,4.3-4.3c2.3,0,4.3,1.9,4.3,4.3C119.7,42.7,117.8,44.6,115.4,44.6z"/>
</g>
</svg>
