<?xml version="1.0" encoding="utf-8"?>
<!-- Generator: Adobe Illustrator 21.1.0, SVG Export Plug-In . SVG Version: 6.00 Build 0)  -->
<svg version="1.1" id="Ebene_1" xmlns="http://www.w3.org/2000/svg" xmlns:xlink="http://www.w3.org/1999/xlink" x="0px" y="0px"
	 viewBox="0 0 150 84" style="enable-background:new 0 0 150 84;" xml:space="preserve">
<style type="text/css">
	.st0{fill:#0B7D8C;}
</style>
<path class="st0" d="M96.1,22.5L78,4.4v16c-22.1,0.2-35.4,8.2-41.8,13.5l-5.7-5.7l-15-15l8,29.9l-8,29.9l15-15l6.5-6.5
	c6.6,5.2,19.9,12.9,41,13.1v16l17.8-17.8c24.5-5.2,38.7-20.2,38.7-20.2S119,28.1,96.1,22.5z M117.9,46.9c-2.3,0-4.3-1.9-4.3-4.3
	c0-2.3,1.9-4.3,4.3-4.3c2.3,0,4.3,1.9,4.3,4.3C122.1,45,120.2,46.9,117.9,46.9z"/>
</svg>
