<?xml version="1.0" encoding="utf-8"?>
<!-- Generator: Adobe Illustrator 21.1.0, SVG Export Plug-In . SVG Version: 6.00 Build 0)  -->
<svg version="1.1"
	 id="svg8" inkscape:version="0.92.1 r15371" sodipodi:docname="kraftwerk.svg" xmlns:cc="http://creativecommons.org/ns#" xmlns:dc="http://purl.org/dc/elements/1.1/" xmlns:inkscape="http://www.inkscape.org/namespaces/inkscape" xmlns:rdf="http://www.w3.org/1999/02/22-rdf-syntax-ns#" xmlns:sodipodi="http://sodipodi.sourceforge.net/DTD/sodipodi-0.dtd" xmlns:svg="http://www.w3.org/2000/svg"
	 xmlns="http://www.w3.org/2000/svg" xmlns:xlink="http://www.w3.org/1999/xlink" x="0px" y="0px" viewBox="0 0 500 500"
	 style="enable-background:new 0 0 500 500;" xml:space="preserve">
<style type="text/css">
	.st0{fill:#FFFFFF;}
	.st1{fill:#0B7D8C;}
</style>
<sodipodi:namedview  bordercolor="#666666" borderopacity="1.0" id="base" inkscape:current-layer="layer1" inkscape:cx="128.78293" inkscape:cy="247.25348" inkscape:document-units="mm" inkscape:pageopacity="0.0" inkscape:pageshadow="2" inkscape:window-height="1147" inkscape:window-maximized="1" inkscape:window-width="1920" inkscape:window-x="-8" inkscape:window-y="-8" inkscape:zoom="1.4" pagecolor="#ffffff" showgrid="false" units="px">
	</sodipodi:namedview>
<g id="layer1" transform="translate(0,-164.70834)" inkscape:groupmode="layer" inkscape:label="Layer 1">
	<rect id="rect4483" x="0" y="164.7" class="st0" width="500" height="500"/>
	<path id="path4542" inkscape:connector-curvature="0" class="st1" d="M296.3,583.3c-20.3-0.8-39.4-5.8-58.5-15.3
		c-11.9-5.9-21.4-12.2-30.4-20.3c-2-1.8-6.5-6.3-8.3-8.2c-8-8.9-14-18.2-18.3-28.4c-3.8-9.1-6-18.8-6.3-27.8c0-1.4-0.1-1.7-0.2-1.7
		c-0.1,0-6.1,3.6-10.2,6c-0.8,0.5-3.7,2.2-6.3,3.8c-2.7,1.6-5.9,3.5-7.2,4.3c-1.3,0.8-3.8,2.3-5.6,3.3
		c-13.2,7.8-41.8,24.9-57.5,34.4c-2.2,1.3-4,2.4-4.1,2.4c-0.1-0.2-1.2-3.8-1.8-5.9c-3.6-12.8-6.1-27.3-6.9-41.2
		c-0.4-6.6-0.4-14.4-0.1-20.6c1.2-21,5.9-39.6,14.3-56.5c10.1-20.3,25.3-37.2,45.5-50.7c16.9-11.3,33.8-18.3,51.6-21.4
		c6.5-1.1,12.3-1.6,19-1.6c3.9,0,5.5,0.1,8.6,0.3c12.1,1,23.2,4,33.1,9.1c1,0.5,1.8,0.9,1.8,0.9c0.1-0.1-1.3-41.7-2-64.2
		c-0.5-16-0.8-23-1.2-33.6c-0.1-2.7-0.2-5-0.1-5c0.1-0.1,4.8,1,7.9,1.8c13.7,3.6,28.2,9.1,41.1,15.5c28.4,14.2,50.2,33.1,64.3,55.8
		c10.9,17.6,17.2,37.5,18.8,59.3c0.3,3.9,0.3,5.7,0.3,10.6c0,6-0.2,8.9-0.7,14.1c-2.5,22-11.2,42.2-24.8,57.5
		c-1.3,1.4-4.6,4.8-6.1,6.2c-4,3.7-8.7,7.2-13.1,9.8c-0.7,0.4-1.3,0.8-1.3,0.8c0,0,0.4,0.3,0.9,0.5c1.6,0.9,16.3,8.4,26.2,13.6
		c5.4,2.8,10.4,5.4,11.1,5.8c1.2,0.6,8.9,4.6,13,6.7c0.8,0.4,2.2,1.1,2.9,1.5c4.7,2.4,10.6,5.5,18.4,9.5c4.9,2.5,9.6,5,10.5,5.4
		c0.9,0.4,3.7,1.9,6.4,3.3c2.6,1.4,4.8,2.5,4.8,2.5c0.1,0.1-6.1,6.2-7.6,7.5c-4.1,3.7-7.5,6.7-11.5,9.8c-25,19.9-52.5,33-79.5,38.1
		c-6.5,1.2-12,1.9-19.2,2.3C306,583.3,298.4,583.4,296.3,583.3L296.3,583.3z M255.9,503c8.7-0.5,17.5-2.7,25.4-6.3
		c10.4-4.7,19.4-11.7,26.3-20.6c7.1-9.1,11.8-19.9,13.4-31.2c1.8-12.4,0-24.7-5-36c-4.6-10.3-11.9-19.4-21-26.4
		c-14.2-10.8-32.1-15.9-50.2-14.3c-23.9,2.1-45,16-56,36.7c-4.3,8-6.7,16.7-7.5,26.2c-0.1,1.7-0.1,7.1,0,8.8
		c0.7,9.1,2.9,17.3,6.9,25.1c6.7,13.3,17.9,24.2,31.6,30.8C231,501.4,243.3,503.8,255.9,503L255.9,503z M248.3,479.2
		c-11.4-0.8-21.6-5.5-29.5-13.3c-4.8-4.8-8.2-10.3-10.4-16.6c-2.4-7-3-14.6-1.5-22c2.2-10.8,8.4-20.3,17.7-26.9
		c6.9-4.9,14.9-7.7,23.6-8.4c1.7-0.1,5.4-0.1,7.2,0c8,0.7,15.2,3.2,21.7,7.5c2.5,1.7,4.6,3.3,6.8,5.5c3.7,3.6,6.4,7.4,8.7,11.9
		c2.3,4.6,3.6,9.1,4.2,14.6c0.2,1.5,0.2,5.7,0,7.4c-0.5,5.5-1.8,10.5-4.2,15.3c-3.5,7-8.8,13-15.4,17.4c-6.2,4-13.1,6.6-20.3,7.4
		C254.1,479.3,250.6,479.4,248.3,479.2L248.3,479.2z M254.2,454.4c4.5-0.6,8.4-2.5,11.5-5.7c3-3,4.9-7,5.3-11.2
		c0.1-1.2,0.1-3.6-0.1-4.7c-1-5.9-4.8-11-10.2-13.8c-2.1-1.1-4.1-1.7-6.5-2c-1.2-0.2-4.1-0.2-5.3,0c-3.2,0.4-6.1,1.5-8.6,3.2
		c-4.6,3.1-7.5,7.6-8.4,13c-0.2,1.3-0.2,3.8,0,5.1c0.6,4.2,2.5,7.8,5.6,10.8c3.3,3.2,7.5,5.1,12.3,5.5
		C250.9,454.6,253,454.5,254.2,454.4L254.2,454.4z"/>
</g>
</svg>
