<?xml version="1.0" encoding="utf-8"?>
<!-- Generator: Adobe Illustrator 21.1.0, SVG Export Plug-In . SVG Version: 6.00 Build 0)  -->
<svg version="1.1"
	 id="svg8" inkscape:version="0.92.1 r15371" sodipodi:docname="pumpspeicher.svg" xmlns:cc="http://creativecommons.org/ns#" xmlns:dc="http://purl.org/dc/elements/1.1/" xmlns:inkscape="http://www.inkscape.org/namespaces/inkscape" xmlns:rdf="http://www.w3.org/1999/02/22-rdf-syntax-ns#" xmlns:sodipodi="http://sodipodi.sourceforge.net/DTD/sodipodi-0.dtd" xmlns:svg="http://www.w3.org/2000/svg"
	 xmlns="http://www.w3.org/2000/svg" xmlns:xlink="http://www.w3.org/1999/xlink" x="0px" y="0px" viewBox="0 0 500 500"
	 style="enable-background:new 0 0 500 500;" xml:space="preserve">
<style type="text/css">
	.st0{fill:#FFFFFF;}
	.st1{fill:#0B7D8C;}
</style>
<sodipodi:namedview  bordercolor="#666666" borderopacity="1.0" id="base" inkscape:current-layer="layer1" inkscape:cx="77.629293" inkscape:cy="409.80685" inkscape:document-units="mm" inkscape:pageopacity="0.0" inkscape:pageshadow="2" inkscape:window-height="1147" inkscape:window-maximized="1" inkscape:window-width="1920" inkscape:window-x="-8" inkscape:window-y="-8" inkscape:zoom="0.98994949" pagecolor="#ffffff" showgrid="false" units="px">
	</sodipodi:namedview>
<g id="layer1" transform="translate(0,-164.70834)" inkscape:groupmode="layer" inkscape:label="Layer 1">
	<rect id="rect4483" x="0" y="164.7" class="st0" width="500" height="500"/>
	<path id="path4535" inkscape:connector-curvature="0" class="st1" d="M142.5,613.2c-10.7-0.6-19.3-2.4-28.5-6.2
		c-2.2-0.9-3.3-1.4-5.8-2.6c-6.4-3.2-12.3-7.1-19.7-12.8c-3.7-2.9-9.7-7.3-12.3-9c-8-5.3-15-7.7-25-8.5c-1.4-0.1-5.4-0.3-6.4-0.4
		c-0.2,0-0.2-0.7-0.2-14v-14l1.6,0c7.9,0,16.2,1.2,23.6,3.3c11.3,3.3,21.5,8.8,32.9,17.7c2.1,1.6,8.2,6.2,10,7.5
		c8.8,6.2,15.2,9,24.5,10.3c9.4,1.4,20.2,0.7,28.2-1.7c5.6-1.7,10.3-4.1,16.7-8.7c2.3-1.6,7.1-5.2,9.6-7.2c10-7.8,18.2-12.6,27.3-16
		c9.7-3.6,19.5-5.3,31.1-5.3c10.9,0,19.6,1.3,28.8,4.4c10.1,3.4,19.2,8.6,30.1,17.1c3.9,3.1,9.4,7.1,12.2,9c3.2,2.2,7.2,4.3,10,5.4
		c8.2,3.2,18.8,4.4,29.5,3.3c9.6-1,16.5-3.4,24.5-8.8c2.6-1.8,8.7-6.2,12.3-9.1c9.1-7.2,17.1-11.9,25.6-15.3
		c7.8-3.1,15.4-4.9,24.1-5.6c1.7-0.1,6.3-0.3,8-0.4l0.8,0v14v14l-1.3,0.1c-5.9,0.3-9.2,0.6-12.5,1.3c-7.8,1.6-13.8,4.4-21.8,10.3
		c-2.3,1.7-7.2,5.4-8.6,6.4c-10.6,8.4-19.9,13.7-30,17.1c-6.7,2.3-13.3,3.6-21.1,4.3c-2.5,0.2-13.2,0.2-15.9-0.1
		c-8.9-0.7-16.2-2.4-23.8-5.3c-2.8-1.1-6.5-2.7-8.6-3.8c-0.5-0.2-1.2-0.6-1.6-0.9c-5.1-2.7-10.5-6.3-17-11.4c-2.4-1.8-6.6-5-9.2-6.9
		c-8.1-5.8-14.1-8.5-22.3-10c-4.5-0.8-10.5-1.2-15.1-1c-12.2,0.6-19.9,2.9-28.8,8.7c-2.7,1.8-8.9,6.3-12.3,9
		c-1.9,1.5-5.7,4.3-7.4,5.5c-14.6,10.2-29,15.2-46,16.1C152,613.3,144,613.3,142.5,613.2L142.5,613.2z M143.6,546.1
		c-8.4-0.2-16.7-1.7-24.5-4.3c-10.4-3.5-19.7-8.8-30.8-17.6c-4.3-3.4-11.7-8.7-14.1-10.1c-1.8-1.1-2.5-1.4-3.6-2
		c-4.4-2.2-8.8-3.6-14-4.5c-3.1-0.5-7.9-1-10.7-1h-1.1v-14.1v-14.1l2.4,0.1c10,0.3,17.8,1.6,26,4.3c10.3,3.4,19.4,8.6,30.5,17.3
		c3.5,2.8,9.2,6.9,11.7,8.6c8.8,5.9,16.1,8.4,27.6,9.2c2.1,0.2,7.2,0.2,9.3,0c12.6-0.9,20-3.7,30.5-11.2c2.2-1.6,6.8-5.1,8.7-6.5
		c8.3-6.5,14.9-10.7,22-14c12.5-5.7,25.2-8.2,40.4-7.7c1.9,0.1,4.3,0.2,5.3,0.3c13.3,1.1,25.1,4.9,36.8,11.9c1.7,1,5.5,3.5,7,4.5
		c1.4,1,5.5,4.1,6.7,5c1.4,1.1,7,5.3,8.9,6.7c7,5,12.2,7.6,18.4,9.2c10.9,2.9,25.3,2.6,35.6-0.7c5.2-1.7,9.9-4.1,16-8.5
		c1.9-1.4,7.9-5.9,10.5-7.9c12-9.3,22.8-14.9,35.2-17.9c6.1-1.5,12.3-2.3,19.1-2.5l3.3-0.1v14v14h-1.2c-2.4,0-6.5,0.3-9.4,0.7
		c-8.6,1.2-15,3.8-22.9,9.3c-2.4,1.7-7.3,5.3-10.6,7.8c-7.9,6.1-13.4,9.7-20.1,13c-9.5,4.7-19.4,7.4-30,8.3
		c-4.3,0.4-10.7,0.4-15.4,0.1c-16.6-1-31.2-6.2-45.7-16.4c-2.1-1.4-3.8-2.7-6.4-4.8c-11.6-9.1-17.2-12.6-23.5-14.9
		c-9.6-3.6-23.5-4.3-34.9-1.9c-7.5,1.6-13.6,4.4-21.5,10.2c-2.5,1.8-6.9,5.1-8.6,6.4c-7.2,5.7-12.9,9.4-19.1,12.5
		c-9.9,5-19.8,7.8-31,8.7C153.2,546.2,148.2,546.3,143.6,546.1L143.6,546.1z M352.3,477.1c-0.6-0.8-3.3-3.9-5.9-7
		c-2.6-3.1-7.6-9.1-11.1-13.4c-7.2-8.6-15.4-18.5-23.8-28.6c-3.1-3.7-8.6-10.3-12.1-14.5c-3.5-4.3-6.4-7.8-6.4-7.8
		c0-0.1,5-0.1,15.3-0.1h15.3v-54.4v-54.4l29.9,0l29.9,0l0,54.3l0,54.3h15.3c9.3,0,15.3,0,15.3,0.1c0,0.1-0.9,1.1-1.9,2.3
		c-1,1.2-4.1,4.9-6.8,8.2c-2.7,3.3-7.5,9-10.5,12.7c-12.1,14.5-12.3,14.8-17.3,20.8c-1.9,2.3-4.7,5.6-6.1,7.4
		c-3,3.7-8,9.6-15.6,18.8c-1.2,1.4-2.2,2.6-2.2,2.6C353.4,478.4,352.9,477.8,352.3,477.1L352.3,477.1z M114.5,464.4
		c0,0-0.1-24.5-0.1-54.4v-54.3l-15.3,0l-15.3,0l1.7-2c0.9-1.1,3.7-4.4,6.1-7.3c13.4-16.1,19.5-23.5,27-32.5
		c3.5-4.2,7.7-9.3,9.3-11.2c1.6-2,5.2-6.2,7.9-9.4c2.7-3.2,5.7-6.8,6.7-8c1-1.2,1.8-2.1,1.8-2.1c0.1,0,0.7,0.8,9.4,11.1
		c3.4,4.1,8.4,10.1,11.1,13.3c9.6,11.6,20.3,24.4,25.6,30.7c3,3.6,7.4,8.9,10,12l4.6,5.5l-15.3,0l-15.3,0l0,54.4l0,54.4l-29.9,0
		C128,464.5,114.5,464.5,114.5,464.4L114.5,464.4z M44.9,270.9c0-13.3,0-14,0.2-14c0.6,0,4.7-0.2,5.7-0.3c4.2-0.3,8.4-1.1,11.7-2
		c6.2-1.8,11.3-4.5,18.6-9.9c2.7-2,6.4-4.7,7.6-5.8c7.5-5.9,14.7-10.5,21.4-13.7c10-4.7,20-7.2,31.4-7.8c2.2-0.1,10.2-0.1,12.3,0
		c12.3,0.7,23,3.6,33.6,9c6.2,3.1,12.4,7.2,19.3,12.7c2.5,2,8.5,6.4,11,8.1c9.5,6.5,17.5,9.1,30.3,9.6c1.9,0.1,3.1,0.1,5.1,0
		c12.4-0.6,20.4-3,29.5-9.1c2.8-1.9,8.4-6,12.3-9c9.2-7.2,17-11.9,25.2-15.2c8-3.3,15.9-5.1,25.2-5.9c2.6-0.2,13.5-0.3,16.1,0
		c14.2,1.2,25.8,4.9,38,12.2c3.8,2.3,9.2,6.1,13.6,9.6c1.5,1.2,7.3,5.5,9.2,6.8c7.6,5.4,13.6,8.1,21,9.5c3.7,0.7,6.2,1,12.2,1.3
		l1.3,0.1v14v14l-0.9,0c-1.5,0-6-0.2-7.4-0.3c-16.1-1.3-30-6.4-44.1-16.4c-1.8-1.3-4.8-3.5-6.6-4.9c-1.8-1.4-6.8-5.1-8.9-6.7
		c-6.1-4.4-10.5-6.8-15.7-8.5c-8.2-2.7-19.6-3.5-29.6-2.1c-9.3,1.3-15.8,4.1-24.6,10.4c-2.1,1.5-6.7,5-9.4,7.1
		c-5.5,4.3-9.6,7.1-14.1,9.7c-11.3,6.6-22.8,10.3-35.7,11.4c-4.3,0.4-11.9,0.4-16,0.2c-7.9-0.6-14.5-1.8-21.3-4.1
		c-9.9-3.3-19-8.3-29-16.1c-5.4-4.2-10.7-8.1-13.5-10c-9.2-6.2-17.5-8.8-30-9.2c-5-0.2-11.7,0.4-16.4,1.4c-7,1.5-12.5,4.1-19.7,9.1
		c-2,1.4-7.8,5.7-9.4,7c-13.8,10.9-25.5,16.9-39.2,20c-5.7,1.3-12.8,2-19,2.1l-1.2,0L44.9,270.9z"/>
</g>
</svg>
