<svg id="energie_strom_und_erzeugung" data-name="energie strom und erzeugung" xmlns="http://www.w3.org/2000/svg" viewBox="0 0 25 24.93"><defs><style>.cls-1{fill:#137d91;}</style></defs><title>speicher</title><path class="cls-1" d="M329.54,360.18l7.55,12.92a30.57,30.57,0,0,1,5-.45,29.47,29.47,0,0,1,4.95.46l7.55-12.93a32.5,32.5,0,0,0-25,0Zm21.32-10.56a3.66,3.66,0,0,1-5.15,0,5.41,5.41,0,0,0-7.35,0,3.66,3.66,0,0,1-5.15,0,5.31,5.31,0,0,0-3.67-1.44v1.76a3.53,3.53,0,0,1,2.57,1.06,5.41,5.41,0,0,0,7.35,0,3.66,3.66,0,0,1,5.15,0,5.4,5.4,0,0,0,3.68,1.44h.07A5.41,5.41,0,0,0,352,351a3.53,3.53,0,0,1,2.57-1.06v-1.76A5.36,5.36,0,0,0,350.86,349.62Zm-2.57,5.29a3.58,3.58,0,0,1-2.58-1.05,5.38,5.38,0,0,0-7.35,0,3.68,3.68,0,0,1-5.15,0,5.31,5.31,0,0,0-3.67-1.45v1.77a3.56,3.56,0,0,1,2.57,1.05,5.38,5.38,0,0,0,7.35,0,3.68,3.68,0,0,1,5.15,0,5.36,5.36,0,0,0,3.68,1.45h.07a5.37,5.37,0,0,0,3.61-1.45,3.56,3.56,0,0,1,2.57-1.05v-1.77a5.36,5.36,0,0,0-3.68,1.45A3.56,3.56,0,0,1,348.29,354.91Z" transform="translate(-329.54 -348.18)"/></svg>