<?xml version="1.0" encoding="utf-8"?>
<!-- Generator: Adobe Illustrator 21.1.0, SVG Export Plug-In . SVG Version: 6.00 Build 0)  -->
<svg version="1.1"
	 id="svg8" inkscape:version="0.92.1 r15371" sodipodi:docname="waermekraft.svg" xmlns:cc="http://creativecommons.org/ns#" xmlns:dc="http://purl.org/dc/elements/1.1/" xmlns:inkscape="http://www.inkscape.org/namespaces/inkscape" xmlns:rdf="http://www.w3.org/1999/02/22-rdf-syntax-ns#" xmlns:sodipodi="http://sodipodi.sourceforge.net/DTD/sodipodi-0.dtd" xmlns:svg="http://www.w3.org/2000/svg"
	 xmlns="http://www.w3.org/2000/svg" xmlns:xlink="http://www.w3.org/1999/xlink" x="0px" y="0px" viewBox="0 0 500 500"
	 style="enable-background:new 0 0 500 500;" xml:space="preserve">
<style type="text/css">
	.st0{fill:#FFFFFF;}
	.st1{fill:#0B7D8C;}
</style>
<sodipodi:namedview  bordercolor="#666666" borderopacity="1.0" id="base" inkscape:current-layer="layer1" inkscape:cx="-86.354117" inkscape:cy="610.4365" inkscape:document-units="mm" inkscape:pageopacity="0.0" inkscape:pageshadow="2" inkscape:window-height="1147" inkscape:window-maximized="1" inkscape:window-width="1920" inkscape:window-x="-8" inkscape:window-y="-8" inkscape:zoom="0.7" pagecolor="#ffffff" showgrid="false" units="px">
	</sodipodi:namedview>
<g id="layer1" transform="translate(0,-164.70834)" inkscape:groupmode="layer" inkscape:label="Layer 1">
	<rect id="rect4483" x="0" y="164.7" class="st0" width="500" height="500"/>
	<path id="path4509" inkscape:connector-curvature="0" class="st1" d="M88.6,507.2V404.5h21.5h21.5l0-0.5c0-0.3,0.1-3,0.3-6
		c0.2-5.6,0.6-13.9,1.6-37.3c0.8-19.7,1.9-46.2,2.7-65c0.4-9.1,1-23,1.3-30.9c0.3-7.9,0.8-19.5,1.1-25.8c0.3-6.3,0.6-13.2,0.7-15.4
		c0.1-2.2,0.2-4.2,0.2-4.4v-0.4h20.7h20.7l0.1,0.9c0,0.5,0.2,5.1,0.4,10.2c0.2,5.1,0.8,18.6,1.3,30c0.5,11.3,1.1,25.3,1.3,30.9
		c0.2,5.7,0.5,12.1,0.6,14.4c0.2,5.8,0.5,12.1,1.3,31.9c0.4,9.7,0.9,22.2,1.2,27.8c0.2,5.7,0.6,14.9,0.9,20.6
		c0.2,5.7,0.5,12.2,0.6,14.4c0.1,2.2,0.2,4.1,0.2,4.3l0,0.2h114.3h114.3v102.7V610H252.9H88.6L88.6,507.2z M285.1,606
		c2.5-2.1,5.9-5.2,8.6-7.8c1.4-1.4,2.4-2.4,5.4-5.6c1.1-1.1,3.6-4,5.1-5.8c4.7-5.6,8.9-11.5,11.8-16.6c1.1-2,1.5-2.6,2.4-4.4
		c3.6-7.2,5.5-13.4,6.4-20.5c0.2-1.5,0.3-6.4,0.1-8.2c-0.7-9.6-3.6-18-9.8-28.1c-3.4-5.5-8.2-12.2-15.5-21.3
		c-6.1-7.6-7.9-9.8-15.2-18c-6.2-6.9-9-10.7-10.9-14.5c-3.1-6.3-3.4-12.5-0.9-20.8c0.4-1.4,1.6-4.4,2.2-5.9l0.5-1.2l-1.1,0.5
		c-3.9,1.8-7.7,4-11.3,6.7c-2.7,2-4.7,3.8-7.2,6.3c-4.1,4.2-7.6,8.7-10.8,13.9c-9.1,15.1-14.9,35.4-16.1,56.3c0,0.6-0.1,1-0.1,0.9
		c-0.4-4.7-5.1-13.2-14-25.1c-2.8-3.7-8.8-11.3-8.9-11.2c0,0-0.1,0.9-0.1,1.9c-0.3,6-1.4,10.5-3.9,15.3c-1.6,3.3-3.3,5.7-7.7,11.4
		c-4.3,5.6-6.2,8.5-8.1,12.1c-3.2,6.1-4.8,12.8-5.3,20.9c-0.1,2.2-0.1,7.2,0.1,8.9c0.8,7.5,2.9,14.5,6.5,21.8
		c3.9,8,9.2,15.6,16.3,23.4c1.8,2,7.1,7.3,9.2,9.2c2.7,2.4,5.5,4.8,7,5.8c0.3,0.2,0.3,0.2,0.2,0c-0.3-0.4-1-1.5-1.3-2.2
		c-2.5-5.5-3.1-14.6-1.5-22.6c1.4-6.5,3.9-12.2,7.7-17c1.4-1.7,3.9-4.2,6-5.9c2.8-2.3,4.5-3.8,6.1-5.5c2.3-2.5,3.8-4.7,4.9-6.9
		c1.1-2.4,1.6-4.3,1.7-6.6c0.1-1.9-0.2-3.6-0.9-5.1c-0.1-0.3-0.2-0.5-0.1-0.5c0.1,0,1.7,0.9,2.7,1.6c3.6,2.4,6.9,5.5,9.6,9.1
		c5.7,7.6,9.7,18.2,11,29.5c0.1,1.2,0.2,1.5,0.2,0.9c0-0.5,0.2-1.7,0.5-2.7c0.9-3.4,2.9-7.3,5.8-11.2c1.3-1.7,2.8-3.5,2.9-3.4
		c0,0,0,0.2-0.1,0.4c-0.1,0.2-0.1,0.9-0.1,1.5c-0.1,1.8,0.3,3.3,1.2,5c0.7,1.4,1.5,2.4,4.1,5.5c3.6,4.2,5.2,6.9,6.3,10.4
		c0.8,2.8,1.2,5.3,1.1,8.7c-0.1,4.8-1.1,9.7-3.1,15.9c-0.3,0.8-0.5,1.4-0.4,1.4C284.2,606.7,284.6,606.4,285.1,606L285.1,606z"/>
</g>
</svg>
