<?xml version="1.0" encoding="utf-8"?>
<!-- Generator: Adobe Illustrator 21.1.0, SVG Export Plug-In . SVG Version: 6.00 Build 0)  -->
<svg version="1.1"
	 id="svg8" inkscape:version="0.92.1 r15371" sodipodi:docname="windkraft.svg" xmlns:cc="http://creativecommons.org/ns#" xmlns:dc="http://purl.org/dc/elements/1.1/" xmlns:inkscape="http://www.inkscape.org/namespaces/inkscape" xmlns:rdf="http://www.w3.org/1999/02/22-rdf-syntax-ns#" xmlns:sodipodi="http://sodipodi.sourceforge.net/DTD/sodipodi-0.dtd" xmlns:svg="http://www.w3.org/2000/svg"
	 xmlns="http://www.w3.org/2000/svg" xmlns:xlink="http://www.w3.org/1999/xlink" x="0px" y="0px" viewBox="0 0 500 500"
	 style="enable-background:new 0 0 500 500;" xml:space="preserve">
<style type="text/css">
	.st0{fill:#FFFFFF;}
	.st1{fill:#0B7D8C;}
</style>
<sodipodi:namedview  bordercolor="#666666" borderopacity="1.0" id="base" inkscape:current-layer="layer1" inkscape:cx="-97.764478" inkscape:cy="396.11776" inkscape:document-units="mm" inkscape:pageopacity="0.0" inkscape:pageshadow="2" inkscape:window-height="1147" inkscape:window-maximized="1" inkscape:window-width="1920" inkscape:window-x="-8" inkscape:window-y="-8" inkscape:zoom="0.98994949" pagecolor="#ffffff" showgrid="false" units="px">
	</sodipodi:namedview>
<g id="layer1" transform="translate(0,-164.70834)" inkscape:groupmode="layer" inkscape:label="Layer 1">
	<rect id="rect4483" x="0" y="164.7" class="st0" width="500" height="500"/>
	<path id="path4496" inkscape:connector-curvature="0" class="st1" d="M211,618.4c0-0.2,0.1-1.1,0.2-2.1c0.1-1,0.5-5.5,0.9-10
		c1.2-13.7,2.2-24.4,2.7-29.6c0.2-2.7,0.7-7.8,1-11.4c0.3-3.5,0.6-7.2,0.7-8.2c0.1-1,0.5-5.8,1-10.8c1-10.8,2.1-23.5,4.5-50
		c0.4-4.5,1.1-11.8,1.5-16.4c0.4-4.5,1-10.6,1.2-13.6c0.3-2.9,0.8-8.7,1.2-12.9c0.4-4.1,0.7-7.5,0.7-7.6c0,0,0.6,0.1,1.4,0.2
		c2.8,0.6,5,0.9,7.9,1.1c2.2,0.2,9,0.2,11.3,0c4.1-0.4,7.4-0.9,11.1-1.9c0.9-0.2,1.7-0.4,1.8-0.5c0.2,0,0-1.9,1.5,15.1
		c0.7,7.3,1.5,16.7,1.9,21c0.4,4.3,1,11.4,1.4,15.9c0.4,4.5,0.9,9.8,1.1,11.8c0.2,2,0.6,6.9,1,10.9c0.8,8.7,1.9,20.8,2.5,27.7
		c0.2,2.7,0.7,7.4,0.9,10.5c0.3,3,0.8,9.2,1.2,13.7c0.4,4.5,1.5,16.8,2.4,27.3c0.9,10.5,1.7,19.3,1.8,19.5l0,0.4h-32.4h-32.4
		L211,618.4L211,618.4z M107.5,494.7c-1.6-0.3-3.2-1.2-4.7-2.6c-3.2-3.1-4.5-7.4-3.1-10.4c0.1-0.3,0.4-0.7,0.5-0.8
		c0.2-0.2,2.3-2.7,4.8-5.6c2.5-2.9,6.5-7.7,9-10.7c2.5-2.9,4.8-5.6,5-5.9c0.6-0.7,3.6-4.2,7-8.3c3.8-4.5,4.2-5,4.7-5.6
		c0.3-0.3,1.6-1.9,2.9-3.5c1.3-1.6,3.1-3.6,3.8-4.5s1.7-2,2.1-2.5c0.4-0.5,1.3-1.5,2-2.4c1.1-1.3,6-7.1,15.4-18.2
		c1.3-1.5,2.6-3.1,2.9-3.5c0.9-1,6.7-7.9,8.8-10.3c1-1.1,1.9-2.2,2-2.4c0.2-0.2,1.2-1.4,2.2-2.7c1.1-1.3,3.4-4,5.2-6.2
		c1.8-2.1,3.6-4.2,4-4.7c3.9-4,8.7-6.3,14.6-6.9c2.1-0.2,5.8-0.1,8.2,0.3c1.7,0.3,5,1.1,5.3,1.3c0.1,0.1,0.1,0.2,0,0.9
		c-0.2,1.3-0.1,5.2,0,6.7c0.5,3.6,1.4,6.7,3,9.8c3.7,7.5,10.7,13.2,19,15.6c1.3,0.4,3.3,0.8,4.2,0.9c0.3,0,0.5,0.1,0.6,0.1
		c0,0-1,0.7-2.2,1.5c-1.2,0.8-3.2,2.1-4.5,2.9c-1.2,0.8-5.8,3.8-10.2,6.6c-4.4,2.8-8.8,5.7-9.9,6.4c-1.1,0.7-2.8,1.8-3.8,2.4
		c-1.8,1.1-5.6,3.6-10.6,6.8c-3,2-5,3.2-9.8,6.3c-1.9,1.2-4.7,3-6.2,4c-1.5,1-4.5,2.9-6.7,4.3c-2.2,1.4-6.1,3.9-8.6,5.6
		c-5.8,3.7-8.2,5.3-10.2,6.5c-0.8,0.5-2.3,1.5-3.2,2.1c-2,1.3-12.9,8.3-16.4,10.5c-1.3,0.8-3.8,2.4-5.5,3.6c-1.7,1.1-4.7,3-6.7,4.3
		c-3.3,2.1-8.6,5.6-11.1,7.2c-1.4,0.9-1.7,1-2.4,1.2C108.7,494.8,108.3,494.8,107.5,494.7L107.5,494.7z M394.5,451.3
		c-4.8-0.8-8.7-1.4-18.9-3c-1.8-0.3-3.8-0.6-4.3-0.7c-1.3-0.2-8.8-1.4-11-1.8c-2.6-0.4-9.4-1.5-10.8-1.7c-1.1-0.2-11.7-1.9-23-3.7
		c-2.1-0.3-4.4-0.7-5.1-0.8c-0.7-0.1-5.7-0.9-11.2-1.8c-5.5-0.9-11.6-1.9-13.6-2.2c-2-0.3-6.1-1-9.2-1.5c-16.5-2.6-15.4-2.4-17.1-3
		c-2.6-0.8-5.4-2.2-7.6-4c-1-0.8-2.8-2.6-3.6-3.6c-2.2-2.8-3.7-5.5-4.9-9.2c-0.6-1.7-1.1-3.8-1-3.9c0,0,0.4-0.2,0.9-0.4
		c5.5-2.3,10.3-6.4,13.6-11.4c2.7-4.1,4.3-8.8,4.7-13.8c0.1-1.5,0.1-4.5-0.1-5.9c-0.4-2.6-1-5.2-2-7.5c-0.1-0.2-0.2-0.4-0.1-0.4
		c0.1,0,4.1,1.9,11.8,5.6c2.5,1.2,4.8,2.3,5.3,2.5c1.4,0.7,2.8,1.3,4.3,2c0.8,0.4,1.8,0.8,2.2,1.1c0.9,0.4,11.3,5.4,16.6,8
		c1.8,0.9,3.7,1.8,4.2,2c0.5,0.2,1.8,0.9,3,1.4c1.1,0.6,2.5,1.2,3.1,1.5c0.5,0.3,3.3,1.6,6.2,3c2.9,1.4,5.7,2.7,6.2,3
		c0.5,0.3,3.8,1.8,7.2,3.5s6.7,3.2,7.3,3.5c1.8,0.9,2.8,1.3,4,1.9c3.7,1.8,8.8,4.3,10.7,5.1c1.3,0.6,2.7,1.3,5,2.4
		c1.1,0.6,2.5,1.2,3.1,1.5c0.5,0.3,2.4,1.2,4.2,2c1.8,0.8,6,2.9,9.4,4.5c3.4,1.6,9,4.3,12.5,6c6.9,3.3,7.8,3.8,9.3,4.5
		c1.5,0.7,2.2,1.4,2.7,2.7c0.3,0.9,0.4,1.6,0.4,2.7c0,3-1.3,6-3.5,8.2c-0.7,0.8-1.5,1.3-2.4,1.7c-0.9,0.4-1.7,0.6-2.5,0.6
		C400,452.2,397.6,451.8,394.5,451.3L394.5,451.3z M239.7,397.6c-4.1-0.5-7.8-2.4-10.3-5.4c-3.1-3.7-4.3-8.6-3.1-13.2
		c1.1-4.2,4.1-7.8,8-9.7c1.5-0.7,3.1-1.2,4.8-1.5c1.1-0.2,3.4-0.2,4.5,0c6.6,1,11.8,5.8,13,12.1c0.2,1.1,0.3,3.3,0.2,4.4
		c-0.5,3.8-2.4,7.4-5.3,9.8c-2,1.7-4.8,2.9-7.4,3.4C243,397.7,240.8,397.7,239.7,397.6L239.7,397.6z M216.7,364.2
		c0-0.1-0.1-1.1-0.1-2.1c-0.1-1-0.5-8.3-1.1-16.2c-1.9-29.2-2.2-34.4-3.2-48.7c-0.8-11.5-2.7-41.2-3.1-47.8
		c-0.6-9.7-0.9-13.4-1.1-16.8c-1.1-16.4-1-15.5-0.9-16.1c0.3-1.3,1.2-2.5,2.6-3.4c0.8-0.5,1.4-0.8,2.5-1.2l0.7-0.3l3.6,0l3.6,0
		l0.7,0.3c0.9,0.4,1.7,0.9,2.3,1.4c0.6,0.5,1.1,1.2,1.2,1.7c0,0.1,1.5,3.9,3.2,8.3c1.7,4.4,3.4,8.8,3.8,9.7c0.4,0.9,1.9,4.9,3.4,8.8
		c2.5,6.4,5.8,14.9,7.1,18.4c0.3,0.7,0.7,1.7,0.9,2.2c0.2,0.5,1.2,3.2,2.3,5.9s2.2,5.6,2.5,6.4c0.3,0.8,1.3,3.2,2.1,5.4
		c1.8,4.7,3.8,9.7,8.4,21.6c1.9,4.8,3.8,9.9,4.4,11.2c0.5,1.3,2.3,6,4,10.3c3.2,8.2,3.6,9.2,3.9,10.6c1.8,7-0.2,14.3-5.6,20.9
		c-0.8,0.9-2.6,2.8-3.5,3.7l-0.6,0.6l-1-0.7c-4.7-3.2-9.8-5-15.4-5.5c-1.4-0.1-4.1-0.1-5.6,0c-8.3,0.8-15.9,4.7-21.1,11
		c-0.3,0.3-0.5,0.6-0.5,0.6C216.7,364.4,216.7,364.3,216.7,364.2L216.7,364.2z"/>
</g>
</svg>
