<?xml version="1.0" encoding="utf-8"?>
<!-- Generator: Adobe Illustrator 21.0.2, SVG Export Plug-In . SVG Version: 6.00 Build 0)  -->
<svg version="1.1" id="Layer_1" xmlns="http://www.w3.org/2000/svg" xmlns:xlink="http://www.w3.org/1999/xlink" x="0px" y="0px"
	 viewBox="0 0 108 34" style="enable-background:new 0 0 108 34;" xml:space="preserve">
<style type="text/css">
	.st0{fill:#FF9400;}
</style>
<title>Logo_108x34</title>
<desc>Created with Sketch.</desc>
<g id="Symbols">
	<g id="Logo_108x34">
		<g id="ALPIQ">
			<path id="Fill-1" class="st0" d="M16.4,0H10C7,8.3,0,28.5,0,29h5.5c0.1-0.6,2.3-7.4,2.3-7.4h10.4c0,0,2.3,6.8,2.4,7.4h5.7
				C26.3,28.5,19.3,8.3,16.4,0L16.4,0z M17.1,17.7H9.2l3.2-10.2c0.2-0.9,0.6-2,0.7-2.6h0.2c0.1,0.6,0.4,1.7,0.7,2.6L17.1,17.7z"/>
			<path id="Fill-3" class="st0" d="M35.2,24.6V0.1c0,0-4.2-0.1-8.1,0c0,0.6-0.1,1.4-0.1,2s0,1.3,0.1,1.9l2.7,0.3V29h14.9v-4.5h-9.5
				V24.6z"/>
			<path id="Fill-5" class="st0" d="M61.8,9.4c0,3.7-1.8,5.5-5.1,5.5H54V4.3c0.9,0,1.9-0.1,3.1-0.1C60,4.2,61.8,5.8,61.8,9.4
				 M67.5,9.4c0-6.6-4.2-9.4-10.9-9.4c-3.4,0-7.2,0-11,0.2c0,0.6-0.1,1.4-0.1,2s0,1.3,0.1,1.9l3,0.3V29H54v-9.6h3.4
				C62.6,19.4,67.5,16.3,67.5,9.4"/>
			<polygon id="Fill-7" class="st0" points="71.8,29 77.4,29 77.4,0 74.7,0 71.8,0 			"/>
			<path id="Fill-9" class="st0" d="M103.4,26.4c2.3-2.5,4.1-6.1,4.1-11.3C107.5,4.8,102.4,0,94.6,0c-7.4,0-12.9,5.1-12.9,15.2
				c0,6.9,2.7,12.6,6.5,14.8l2.6-5.1c-1.7-1.7-3.3-3.9-3.3-9.8c0-7.8,2.6-10.6,7-10.6s7.2,2.6,7.2,10.6c0,3.1-0.6,5.7-1.2,6.9h-0.1
				c0,0-0.3-0.6-0.7-1.3l-1.2-2c-2-0.1-4-0.1-6,0l9.4,15.2c1.9,0.1,4,0.1,6.2,0L103.4,26.4z"/>
		</g>
	</g>
</g>
</svg>
